<svg xmlns="http://www.w3.org/2000/svg" xml:space="preserve" style="fill-rule:evenodd;clip-rule:evenodd;stroke-linejoin:round;stroke-miterlimit:2" height="45" width="51.96" viewBox="0 0 1732 1500"><path d="M850.025 704.727C831.377 711.315 818 729.108 818 750c0 3.001.276 5.938.805 8.788L464.2 963.519C455.809 956.338 444.913 952 433.013 952c-11.9 0-22.797 4.338-31.187 11.519L47.198 758.774c.526-2.845.802-5.777.802-8.774 0-20.883-13.365-38.669-32-45.264V295.291c18.635-6.595 32-24.381 32-45.264 0-2.996-.276-5.929-.802-8.774L401.845 36.497C410.233 43.669 421.122 48 433.013 48c11.891 0 22.78-4.331 31.168-11.503L818.805 241.24a48.1 48.1 0 0 0-.805 8.787c0 20.893 13.377 38.685 32.025 45.274v409.426Z" style="fill:#111116"/><path d="M850.025 704.727C831.377 711.315 818 729.108 818 750c0 3.001.276 5.938.805 8.788L464.2 963.519C455.809 956.338 444.913 952 433.013 952c-11.9 0-22.797 4.338-31.187 11.519L47.198 758.774c.526-2.845.802-5.777.802-8.774 0-20.883-13.365-38.669-32-45.264V295.291c18.635-6.595 32-24.381 32-45.264 0-2.996-.276-5.929-.802-8.774L401.845 36.497C410.233 43.669 421.122 48 433.013 48c11.891 0 22.78-4.331 31.168-11.503L818.805 241.24a48.1 48.1 0 0 0-.805 8.787c0 20.893 13.377 38.685 32.025 45.274v409.426Z" style="fill:#111116" transform="translate(1298.96 749.975)"/><path d="M850.025 704.727C831.377 711.315 818 729.108 818 750c0 3.001.276 5.938.805 8.788L464.2 963.519C455.809 956.338 444.913 952 433.013 952c-11.9 0-22.797 4.338-31.187 11.519L47.198 758.774c.526-2.845.802-5.777.802-8.774 0-20.883-13.365-38.669-32-45.264V295.291c18.635-6.595 32-24.381 32-45.264 0-2.996-.276-5.929-.802-8.774L401.845 36.497C410.233 43.669 421.122 48 433.013 48c11.891 0 22.78-4.331 31.168-11.503L818.805 241.24a48.1 48.1 0 0 0-.805 8.787c0 20.893 13.377 38.685 32.025 45.274v409.426Z" style="fill:#111116" transform="translate(433.013 749.975)"/><path d="M1716 295.292v409.462c-18.61 6.609-31.95 24.382-31.95 45.246 0 2.987.28 5.911.8 8.748L1330.2 963.501A47.779 47.779 0 0 0 1299.04 952c-11.9 0-22.8 4.338-31.19 11.519L913.2 758.761c.525-2.841.8-5.769.8-8.761 0-20.873-13.353-38.653-31.975-45.255V295.282C900.647 288.68 914 270.901 914 250.027c0-2.992-.275-5.92-.8-8.761l354.67-204.769c8.39 7.172 19.28 11.503 31.17 11.503s22.78-4.331 31.17-11.503l354.6 204.729a48.165 48.165 0 0 0-.81 8.801c0 20.883 13.37 38.669 32 45.265Z" style="fill:#111116"/><path d="M1716 295.292v409.462c-18.61 6.609-31.95 24.382-31.95 45.246 0 2.987.28 5.911.8 8.748L1330.2 963.501A47.779 47.779 0 0 0 1299.04 952c-11.9 0-22.8 4.338-31.19 11.519L913.2 758.761c.525-2.841.8-5.769.8-8.761 0-20.873-13.353-38.653-31.975-45.255V295.282C900.647 288.68 914 270.901 914 250.027c0-2.992-.275-5.92-.8-8.761l354.67-204.769c8.39 7.172 19.28 11.503 31.17 11.503s22.78-4.331 31.17-11.503l354.6 204.729a48.165 48.165 0 0 0-.81 8.801c0 20.883 13.37 38.669 32 45.265Z" style="fill:#111116" transform="translate(432.987 -749.989)"/><path d="M1716 295.292v409.462c-18.61 6.609-31.95 24.382-31.95 45.246 0 2.987.28 5.911.8 8.748L1330.2 963.501A47.779 47.779 0 0 0 1299.04 952c-11.9 0-22.8 4.338-31.19 11.519L913.2 758.761c.525-2.841.8-5.769.8-8.761 0-20.873-13.353-38.653-31.975-45.255V295.282C900.647 288.68 914 270.901 914 250.027c0-2.992-.275-5.92-.8-8.761l354.67-204.769c8.39 7.172 19.28 11.503 31.17 11.503s22.78-4.331 31.17-11.503l354.6 204.729a48.165 48.165 0 0 0-.81 8.801c0 20.883 13.37 38.669 32 45.265Z" style="fill:#111116" transform="translate(-433.013 -749.989)"/><path d="M1716 295.292v409.462c-18.61 6.609-31.95 24.382-31.95 45.246 0 2.987.28 5.911.8 8.748L1330.2 963.501A47.779 47.779 0 0 0 1299.04 952c-11.9 0-22.8 4.338-31.19 11.519L913.2 758.761c.525-2.841.8-5.769.8-8.761 0-20.873-13.353-38.653-31.975-45.255V295.282C900.647 288.68 914 270.901 914 250.027c0-2.992-.275-5.92-.8-8.761l354.67-204.769c8.39 7.172 19.28 11.503 31.17 11.503s22.78-4.331 31.17-11.503l354.6 204.729a48.165 48.165 0 0 0-.81 8.801c0 20.883 13.37 38.669 32 45.265Z" style="fill:#111116" transform="translate(-1299.01 -749.989)"/><path d="M1716 295.292v409.462c-18.61 6.609-31.95 24.382-31.95 45.246 0 2.987.28 5.911.8 8.748L1330.2 963.501A47.779 47.779 0 0 0 1299.04 952c-11.9 0-22.8 4.338-31.19 11.519L913.2 758.761c.525-2.841.8-5.769.8-8.761 0-20.873-13.353-38.653-31.975-45.255V295.282C900.647 288.68 914 270.901 914 250.027c0-2.992-.275-5.92-.8-8.761l354.67-204.769c8.39 7.172 19.28 11.503 31.17 11.503s22.78-4.331 31.17-11.503l354.6 204.729a48.165 48.165 0 0 0-.81 8.801c0 20.883 13.37 38.669 32 45.265Z" style="fill:#111116" transform="translate(-1298.99 749.984)"/></svg>